<svg xmlns="http://www.w3.org/2000/svg" viewBox="0 0 2020 940" width="2020" height="940" style="font-family:Segoe UI,Arial,sans-serif;background:#fff;">

  <!-- ── Title ─────────────────────────────────────────────────────── -->
  <text x="1010" y="30" text-anchor="middle" font-size="19" font-weight="bold" fill="#1F3864">CCBJI Azure Data Engineering Platform — High Level Architecture</text>
  <text x="1010" y="50" text-anchor="middle" font-size="11" fill="#4472C4" font-style="italic">Medallion Architecture (Bronze → Silver → Gold) · Azure Databricks · ADF · ADLS Gen2 · Unity Catalog</text>

  <!-- ════════════════════════════════════════════════════════════════
       1. DATA SOURCES
  ═════════════════════════════════════════════════════════════════ -->
  <rect x="10" y="60" width="185" height="790" rx="8" fill="#1F3864"/>
  <text x="102" y="84" text-anchor="middle" font-size="11" font-weight="bold" fill="#fff">DATA SOURCES</text>
  <!-- SQL DB -->
  <rect x="36" y="105" width="133" height="34" rx="6" fill="#0078D4"/>
  <text x="102" y="127" text-anchor="middle" font-size="10" fill="#fff" font-weight="bold">🗄 Azure SQL DB</text>
  <text x="102" y="154" text-anchor="middle" font-size="9" fill="#BDD7EE">Customer</text>
  <text x="102" y="167" text-anchor="middle" font-size="9" fill="#BDD7EE">(customer_master)</text>
  <!-- divider -->
  <line x1="36" y1="185" x2="169" y2="185" stroke="#4472C4" stroke-width="1"/>
  <!-- REST API -->
  <rect x="36" y="198" width="133" height="34" rx="6" fill="#0078D4"/>
  <text x="102" y="220" text-anchor="middle" font-size="10" fill="#fff" font-weight="bold">🌐 REST API</text>
  <text x="102" y="247" text-anchor="middle" font-size="9" fill="#BDD7EE">Product</text>
  <text x="102" y="260" text-anchor="middle" font-size="9" fill="#BDD7EE">(product_master)</text>
  <!-- divider -->
  <line x1="36" y1="278" x2="169" y2="278" stroke="#4472C4" stroke-width="1"/>
  <!-- CSV File -->
  <rect x="36" y="291" width="133" height="34" rx="6" fill="#107C10"/>
  <text x="102" y="313" text-anchor="middle" font-size="10" fill="#fff" font-weight="bold">📄 CSV File</text>
  <text x="102" y="340" text-anchor="middle" font-size="9" fill="#BDD7EE">Sales Transactions</text>
  <text x="102" y="353" text-anchor="middle" font-size="9" fill="#BDD7EE">(sales_transactions)</text>

  <!-- Arrow DS → Ingestion -->
  <line x1="195" y1="450" x2="212" y2="450" stroke="#4472C4" stroke-width="3" marker-end="url(#arrowBlue)"/>

  <!-- ════════════════════════════════════════════════════════════════
       2. INGESTION LAYER
  ═════════════════════════════════════════════════════════════════ -->
  <rect x="215" y="60" width="345" height="790" rx="8" fill="#004EA8"/>
  <text x="387" y="84" text-anchor="middle" font-size="11" font-weight="bold" fill="#fff">INGESTION LAYER</text>
  <text x="387" y="100" text-anchor="middle" font-size="9" fill="#BDD7EE" font-style="italic">(Metadata Driven ADF Pipelines)</text>
  <!-- ADF logo box -->
  <rect x="352" y="108" width="70" height="28" rx="5" fill="#0078D4"/>
  <text x="387" y="127" text-anchor="middle" font-size="10" font-weight="bold" fill="#fff">⚙ Azure Data Factory</text>

  <!-- Pipeline 1 -->
  <rect x="228" y="148" width="319" height="155" rx="6" fill="#0078D4"/>
  <text x="387" y="168" text-anchor="middle" font-size="9" font-weight="bold" fill="#fff">SQL To Landing Ingestion Pipeline</text>
  <!-- Activities P1 -->
  <rect x="238" y="178" width="66" height="52" rx="4" fill="#00A4EF"/>
  <text x="271" y="198" text-anchor="middle" font-size="8" fill="#fff">🗄 Lookup</text>
  <text x="271" y="212" text-anchor="middle" font-size="7" fill="#BDD7EE">Metadata</text>
  <line x1="304" y1="204" x2="314" y2="204" stroke="#BDD7EE" stroke-width="1.5" marker-end="url(#arrowLight)"/>
  <rect x="314" y="178" width="66" height="52" rx="4" fill="#00A4EF"/>
  <text x="347" y="198" text-anchor="middle" font-size="8" fill="#fff">📋 Stored</text>
  <text x="347" y="212" text-anchor="middle" font-size="7" fill="#BDD7EE">Proc/Query</text>
  <line x1="380" y1="204" x2="390" y2="204" stroke="#BDD7EE" stroke-width="1.5" marker-end="url(#arrowLight)"/>
  <rect x="390" y="178" width="66" height="52" rx="4" fill="#00A4EF"/>
  <text x="423" y="198" text-anchor="middle" font-size="8" fill="#fff">📋 Copy</text>
  <text x="423" y="212" text-anchor="middle" font-size="7" fill="#BDD7EE">Activity</text>
  <line x1="456" y1="204" x2="466" y2="204" stroke="#BDD7EE" stroke-width="1.5" marker-end="url(#arrowLight)"/>
  <rect x="466" y="178" width="66" height="52" rx="4" fill="#00A4EF"/>
  <text x="499" y="198" text-anchor="middle" font-size="8" fill="#fff">⚡ Param</text>
  <text x="499" y="212" text-anchor="middle" font-size="7" fill="#BDD7EE">Path</text>
  <text x="387" y="260" text-anchor="middle" font-size="8" fill="#BDD7EE" font-style="italic">Reads → Executes proc → Copies incremental rows → Builds dynamic path</text>
  <text x="387" y="294" text-anchor="middle" font-size="8" fill="#BDD7EE" font-style="italic">Loads watermark → Executes proc → Copies Incremental rows → Builds dynamic path</text>

  <!-- Pipeline 2 -->
  <rect x="228" y="316" width="319" height="155" rx="6" fill="#0078D4"/>
  <text x="387" y="336" text-anchor="middle" font-size="9" font-weight="bold" fill="#fff">REST To Landing Ingestion Pipeline</text>
  <rect x="238" y="346" width="66" height="52" rx="4" fill="#00A4EF"/>
  <text x="271" y="366" text-anchor="middle" font-size="8" fill="#fff">🗄 Lookup</text>
  <text x="271" y="380" text-anchor="middle" font-size="7" fill="#BDD7EE">Metadata</text>
  <line x1="304" y1="372" x2="314" y2="372" stroke="#BDD7EE" stroke-width="1.5" marker-end="url(#arrowLight)"/>
  <rect x="314" y="346" width="66" height="52" rx="4" fill="#00A4EF"/>
  <text x="347" y="366" text-anchor="middle" font-size="8" fill="#fff">🌐 Web</text>
  <text x="347" y="380" text-anchor="middle" font-size="7" fill="#BDD7EE">Activity (API)</text>
  <line x1="380" y1="372" x2="390" y2="372" stroke="#BDD7EE" stroke-width="1.5" marker-end="url(#arrowLight)"/>
  <rect x="390" y="346" width="66" height="52" rx="4" fill="#00A4EF"/>
  <text x="423" y="366" text-anchor="middle" font-size="8" fill="#fff">📋 Copy</text>
  <text x="423" y="380" text-anchor="middle" font-size="7" fill="#BDD7EE">Activity</text>
  <line x1="456" y1="372" x2="466" y2="372" stroke="#BDD7EE" stroke-width="1.5" marker-end="url(#arrowLight)"/>
  <rect x="466" y="346" width="66" height="52" rx="4" fill="#00A4EF"/>
  <text x="499" y="366" text-anchor="middle" font-size="8" fill="#fff">⚡ Param</text>
  <text x="499" y="380" text-anchor="middle" font-size="7" fill="#BDD7EE">Path</text>
  <text x="387" y="428" text-anchor="middle" font-size="8" fill="#BDD7EE" font-style="italic">Reads config → Calls REST endpoint with pagination → Saves JSON → Builds path</text>
  <text x="387" y="462" text-anchor="middle" font-size="8" fill="#BDD7EE" font-style="italic">Reads config → Calls REST endpoint with pagination → Saves JSON → Builds path</text>

  <!-- Pipeline 3 -->
  <rect x="228" y="484" width="319" height="155" rx="6" fill="#0078D4"/>
  <text x="387" y="504" text-anchor="middle" font-size="9" font-weight="bold" fill="#fff">File To Landing Ingestion Pipeline</text>
  <rect x="238" y="514" width="66" height="52" rx="4" fill="#00A4EF"/>
  <text x="271" y="534" text-anchor="middle" font-size="8" fill="#fff">🗄 Lookup</text>
  <text x="271" y="548" text-anchor="middle" font-size="7" fill="#BDD7EE">Metadata</text>
  <line x1="304" y1="540" x2="314" y2="540" stroke="#BDD7EE" stroke-width="1.5" marker-end="url(#arrowLight)"/>
  <rect x="314" y="514" width="66" height="52" rx="4" fill="#00A4EF"/>
  <text x="347" y="534" text-anchor="middle" font-size="8" fill="#fff">📁 Get</text>
  <text x="347" y="548" text-anchor="middle" font-size="7" fill="#BDD7EE">Metadata</text>
  <line x1="380" y1="540" x2="390" y2="540" stroke="#BDD7EE" stroke-width="1.5" marker-end="url(#arrowLight)"/>
  <rect x="390" y="514" width="66" height="52" rx="4" fill="#00A4EF"/>
  <text x="423" y="534" text-anchor="middle" font-size="8" fill="#fff">📋 Copy</text>
  <text x="423" y="548" text-anchor="middle" font-size="7" fill="#BDD7EE">Activity</text>
  <line x1="456" y1="540" x2="466" y2="540" stroke="#BDD7EE" stroke-width="1.5" marker-end="url(#arrowLight)"/>
  <rect x="466" y="514" width="66" height="52" rx="4" fill="#00A4EF"/>
  <text x="499" y="534" text-anchor="middle" font-size="8" fill="#fff">⚡ Param</text>
  <text x="499" y="548" text-anchor="middle" font-size="7" fill="#BDD7EE">Path</text>
  <text x="387" y="596" text-anchor="middle" font-size="8" fill="#BDD7EE" font-style="italic">Checks metadata → Validates file exists → Copies to landing → Builds dated path</text>
  <text x="387" y="630" text-anchor="middle" font-size="8" fill="#BDD7EE" font-style="italic">Checks metadata → Validates file exists → Copies to landing → Builds dated path</text>

  <!-- Storage Event -->
  <rect x="300" y="698" width="175" height="38" rx="6" fill="#FF8C00"/>
  <text x="387" y="722" text-anchor="middle" font-size="9" font-weight="bold" fill="#fff">⚡ Storage Event Trigger (ADLS Gen2)</text>

  <!-- Arrow Ingestion → Data Lake -->
  <line x1="560" y1="450" x2="577" y2="450" stroke="#00A4EF" stroke-width="4" marker-end="url(#arrowCyan)"/>

  <!-- ════════════════════════════════════════════════════════════════
       3. DATA LAKE (ADLS GEN2)
  ═════════════════════════════════════════════════════════════════ -->
  <rect x="580" y="60" width="620" height="790" rx="8" fill="#EDEDED" stroke="#AAAAAA" stroke-width="1.5"/>
  <text x="890" y="84" text-anchor="middle" font-size="11" font-weight="bold" fill="#1F3864">DATA LAKE (ADLS GEN2)</text>
  <text x="890" y="100" text-anchor="middle" font-size="10" fill="#4472C4" font-weight="bold">⛅ ADLS Gen2</text>

  <!-- LANDING -->
  <rect x="592" y="112" width="142" height="595" rx="6" fill="#00B050"/>
  <text x="663" y="134" text-anchor="middle" font-size="11" font-weight="bold" fill="#fff">LANDING</text>
  <text x="663" y="150" text-anchor="middle" font-size="9" fill="#CCFFCC" font-style="italic">(Raw)</text>
  <rect x="605" y="162" width="116" height="60" rx="5" fill="#00702F"/>
  <text x="663" y="181" text-anchor="middle" font-size="9" fill="#fff" font-weight="bold">📁 Raw Storage</text>
  <text x="663" y="197" text-anchor="middle" font-size="8" fill="#CCFFCC">Raw files as received</text>
  <text x="663" y="211" text-anchor="middle" font-size="8" fill="#CCFFCC">Immutable</text>
  <text x="663" y="242" text-anchor="middle" font-size="8" fill="#CCFFCC">/inbound/</text>
  <text x="663" y="256" text-anchor="middle" font-size="8" fill="#CCFFCC">&lt;source&gt;/&lt;object&gt;/</text>
  <text x="663" y="270" text-anchor="middle" font-size="8" fill="#CCFFCC">YYYY/MM/DD/HH/</text>
  <text x="663" y="295" text-anchor="middle" font-size="8" fill="#fff">• customer_master/</text>
  <text x="663" y="310" text-anchor="middle" font-size="8" fill="#fff">  dt=YYYYMMDD/*.csv</text>
  <text x="663" y="330" text-anchor="middle" font-size="8" fill="#fff">• product_master/</text>
  <text x="663" y="345" text-anchor="middle" font-size="8" fill="#fff">  dt=YYYYMMDD/*.json</text>
  <text x="663" y="365" text-anchor="middle" font-size="8" fill="#fff">• sales_transactions/</text>
  <text x="663" y="380" text-anchor="middle" font-size="8" fill="#fff">  dt=YYYYMMDD/*.csv</text>
  <rect x="612" y="420" width="103" height="26" rx="4" fill="#FF8C00"/>
  <text x="663" y="437" text-anchor="middle" font-size="8" font-weight="bold" fill="#fff">⚡ Storage Event</text>

  <!-- BRONZE arrow -->
  <line x1="734" y1="410" x2="746" y2="410" stroke="#C55A11" stroke-width="3" marker-end="url(#arrowOrange)"/>

  <!-- BRONZE -->
  <rect x="746" y="112" width="142" height="595" rx="6" fill="#C55A11"/>
  <text x="817" y="134" text-anchor="middle" font-size="11" font-weight="bold" fill="#fff">BRONZE</text>
  <text x="817" y="150" text-anchor="middle" font-size="9" fill="#FFD7A8" font-style="italic">(Source Aligned)</text>
  <!-- Cylinder icon -->
  <ellipse cx="817" cy="188" rx="40" ry="12" fill="#FF8000" stroke="#843C0B" stroke-width="1"/>
  <rect x="777" y="188" width="80" height="50" fill="#FF8000" stroke="#843C0B" stroke-width="1"/>
  <ellipse cx="817" cy="238" rx="40" ry="12" fill="#FF8000" stroke="#843C0B" stroke-width="1"/>
  <text x="817" y="220" text-anchor="middle" font-size="9" fill="#fff" font-weight="bold">Delta</text>
  <text x="817" y="263" text-anchor="middle" font-size="9" fill="#fff">Delta Tables</text>
  <text x="817" y="278" text-anchor="middle" font-size="8" fill="#FFD7A8">Overwrite per batch</text>
  <text x="817" y="295" text-anchor="middle" font-size="8" fill="#FFD7A8">Partitioned by batch_id</text>
  <text x="817" y="318" text-anchor="middle" font-size="8" fill="#fff">/bronze/&lt;object&gt;/</text>
  <text x="817" y="332" text-anchor="middle" font-size="8" fill="#fff">dt=YYYYMMDD/</text>
  <text x="817" y="360" text-anchor="middle" font-size="8" fill="#FFD7A8">• customer_master</text>
  <text x="817" y="375" text-anchor="middle" font-size="8" fill="#FFD7A8">• product_master</text>
  <text x="817" y="390" text-anchor="middle" font-size="8" fill="#FFD7A8">• sales_transactions</text>
  <rect x="762" y="640" width="110" height="24" rx="4" fill="#843C0B"/>
  <text x="817" y="657" text-anchor="middle" font-size="8" font-weight="bold" fill="#FFD7A8">Mode: Overwrite</text>

  <!-- SILVER arrow -->
  <line x1="888" y1="410" x2="900" y2="410" stroke="#2E75B6" stroke-width="3" marker-end="url(#arrowSilver)"/>

  <!-- SILVER -->
  <rect x="900" y="112" width="142" height="595" rx="6" fill="#2E75B6"/>
  <text x="971" y="134" text-anchor="middle" font-size="11" font-weight="bold" fill="#fff">SILVER</text>
  <text x="971" y="150" text-anchor="middle" font-size="9" fill="#BDD7EE" font-style="italic">(Standardized)</text>
  <ellipse cx="971" cy="188" rx="40" ry="12" fill="#4472C4" stroke="#1F4E79" stroke-width="1"/>
  <rect x="931" y="188" width="80" height="50" fill="#4472C4" stroke="#1F4E79" stroke-width="1"/>
  <ellipse cx="971" cy="238" rx="40" ry="12" fill="#4472C4" stroke="#1F4E79" stroke-width="1"/>
  <text x="971" y="220" text-anchor="middle" font-size="9" fill="#fff" font-weight="bold">Delta</text>
  <text x="971" y="263" text-anchor="middle" font-size="9" fill="#fff">Delta Tables</text>
  <text x="971" y="278" text-anchor="middle" font-size="8" fill="#BDD7EE">Append across batches</text>
  <text x="971" y="295" text-anchor="middle" font-size="8" fill="#BDD7EE">DQ validated rows only</text>
  <text x="971" y="318" text-anchor="middle" font-size="8" fill="#fff">/silver/&lt;object&gt;/</text>
  <text x="971" y="332" text-anchor="middle" font-size="8" fill="#fff">dt=YYYYMMDD/</text>
  <text x="971" y="360" text-anchor="middle" font-size="8" fill="#BDD7EE">• customer_master</text>
  <text x="971" y="375" text-anchor="middle" font-size="8" fill="#BDD7EE">• product_master</text>
  <text x="971" y="390" text-anchor="middle" font-size="8" fill="#BDD7EE">• sales_transactions</text>
  <text x="971" y="405" text-anchor="middle" font-size="8" fill="#BDD7EE">• *_error tables</text>
  <rect x="916" y="640" width="110" height="24" rx="4" fill="#1F4E79"/>
  <text x="971" y="657" text-anchor="middle" font-size="8" font-weight="bold" fill="#BDD7EE">Mode: Append</text>
  <rect x="920" y="546" width="102" height="22" rx="4" fill="#4472C4" stroke="#BDD7EE" stroke-width="1"/>
  <text x="971" y="562" text-anchor="middle" font-size="8" font-weight="bold" fill="#fff">✓ DQ Validated</text>

  <!-- GOLD arrow -->
  <line x1="1042" y1="410" x2="1054" y2="410" stroke="#BF9000" stroke-width="3" marker-end="url(#arrowGold)"/>

  <!-- GOLD -->
  <rect x="1054" y="112" width="136" height="595" rx="6" fill="#BF9000"/>
  <text x="1122" y="134" text-anchor="middle" font-size="11" font-weight="bold" fill="#fff">GOLD</text>
  <text x="1122" y="150" text-anchor="middle" font-size="9" fill="#FFE699" font-style="italic">(Business Ready)</text>
  <ellipse cx="1122" cy="188" rx="40" ry="12" fill="#F4B942" stroke="#7F6000" stroke-width="1"/>
  <rect x="1082" y="188" width="80" height="50" fill="#F4B942" stroke="#7F6000" stroke-width="1"/>
  <ellipse cx="1122" cy="238" rx="40" ry="12" fill="#F4B942" stroke="#7F6000" stroke-width="1"/>
  <text x="1122" y="220" text-anchor="middle" font-size="9" fill="#1F1F1F" font-weight="bold">Delta</text>
  <text x="1122" y="263" text-anchor="middle" font-size="9" fill="#fff">Star Schema</text>
  <text x="1122" y="280" text-anchor="middle" font-size="8" fill="#FFE699">SCD Type 2 Dims</text>
  <text x="1122" y="297" text-anchor="middle" font-size="8" fill="#FFE699">Fact TX hash upsert</text>
  <text x="1122" y="320" text-anchor="middle" font-size="8" fill="#fff">/gold/dimensions/</text>
  <text x="1122" y="335" text-anchor="middle" font-size="8" fill="#fff">/gold/facts/</text>
  <text x="1122" y="360" text-anchor="middle" font-size="8" fill="#FFE699">• dim_date</text>
  <text x="1122" y="375" text-anchor="middle" font-size="8" fill="#FFE699">• dim_customer</text>
  <text x="1122" y="390" text-anchor="middle" font-size="8" fill="#FFE699">• dim_product</text>
  <text x="1122" y="405" text-anchor="middle" font-size="8" fill="#FFE699">• fact_sales</text>
  <text x="1122" y="420" text-anchor="middle" font-size="8" fill="#FFE699">• late_arriving_bridge</text>
  <rect x="1067" y="640" width="110" height="24" rx="4" fill="#7F6000"/>
  <text x="1122" y="657" text-anchor="middle" font-size="8" font-weight="bold" fill="#FFE699">Mode: MERGE (upsert)</text>
  <rect x="1065" y="546" width="113" height="22" rx="4" fill="#7F6000" stroke="#FFE699" stroke-width="1"/>
  <text x="1122" y="562" text-anchor="middle" font-size="8" font-weight="bold" fill="#FFE699">✓ SCD Type 2</text>

  <!-- Metadata Repository -->
  <rect x="592" y="720" width="608" height="58" rx="6" fill="#fff" stroke="#4472C4" stroke-width="2"/>
  <text x="896" y="745" text-anchor="middle" font-size="10" font-weight="bold" fill="#1F3864">METADATA REPOSITORY (Centralized)</text>
  <text x="896" y="764" text-anchor="middle" font-size="9" fill="#4472C4">YAML configs for Ingestion / Standardization / Transformation · Watermark tracking · Pipeline run log · DQ check log · Alert log</text>

  <!-- Arrow Data Lake → Processing -->
  <line x1="1200" y1="450" x2="1217" y2="450" stroke="#BF9000" stroke-width="4" marker-end="url(#arrowGold)"/>

  <!-- ════════════════════════════════════════════════════════════════
       4. PROCESSING LAYER
  ═════════════════════════════════════════════════════════════════ -->
  <rect x="1220" y="60" width="490" height="790" rx="8" fill="#1F3864"/>
  <text x="1465" y="84" text-anchor="middle" font-size="11" font-weight="bold" fill="#fff">PROCESSING LAYER</text>
  <text x="1465" y="100" text-anchor="middle" font-size="9" fill="#BDD7EE" font-style="italic">(Azure Databricks)</text>
  <!-- Databricks logo block -->
  <rect x="1415" y="108" width="100" height="32" rx="6" fill="#FF3621"/>
  <text x="1465" y="129" text-anchor="middle" font-size="11" font-weight="bold" fill="#fff">🔷 databricks</text>

  <!-- Standardization Framework -->
  <rect x="1232" y="152" width="466" height="285" rx="6" fill="#0F2E5A" stroke="#4472C4" stroke-width="1.5"/>
  <text x="1465" y="173" text-anchor="middle" font-size="10" font-weight="bold" fill="#BDD7EE">Standardization Framework</text>
  <text x="1465" y="189" text-anchor="middle" font-size="8" fill="#8FA8CC" font-style="italic">(Generic Notebook + SD YAML)</text>
  <text x="1248" y="212" font-size="9" fill="#BDD7EE">• Data Quality (5 check types): row_count · not_null · not_negative</text>
  <text x="1248" y="230" font-size="9" fill="#BDD7EE">  allowed_values · regex — severity: error/warning</text>
  <text x="1248" y="250" font-size="9" fill="#BDD7EE">• Standardization: trim · upper · cast · add_column transforms</text>
  <text x="1248" y="270" font-size="9" fill="#BDD7EE">• Data Type Conversion &amp; Validation (config-driven)</text>
  <text x="1248" y="290" font-size="9" fill="#BDD7EE">• BatchID tracking via ADF pipeline_run_id</text>
  <text x="1248" y="310" font-size="9" fill="#BDD7EE">• Deduplication via SHA-256 transaction hash</text>
  <text x="1248" y="330" font-size="9" fill="#BDD7EE">• Column Masking (Unity Catalog — PII protection)</text>
  <text x="1248" y="350" font-size="9" fill="#BDD7EE">• Audit: pipeline_run_log · dq_check_log · alert_log</text>
  <!-- SD badge -->
  <rect x="1360" y="390" width="210" height="26" rx="6" fill="#4472C4"/>
  <text x="1465" y="408" text-anchor="middle" font-size="9" font-weight="bold" fill="#fff">✓ DQ Validated — Append to Silver</text>

  <!-- Transformation Framework -->
  <rect x="1232" y="450" width="466" height="285" rx="6" fill="#0F2E5A" stroke="#4472C4" stroke-width="1.5"/>
  <text x="1465" y="470" text-anchor="middle" font-size="10" font-weight="bold" fill="#BDD7EE">Transformation Framework</text>
  <text x="1465" y="486" text-anchor="middle" font-size="8" fill="#8FA8CC" font-style="italic">(Generic Notebook + TF YAML)</text>
  <text x="1248" y="510" font-size="9" fill="#BDD7EE">• SCD Type 2 Dimensions (SHA-256 attribute hash, MERGE logic)</text>
  <text x="1248" y="530" font-size="9" fill="#BDD7EE">• Fact (Star Schema) — transaction hash idempotent upsert</text>
  <text x="1248" y="550" font-size="9" fill="#BDD7EE">• Late Arriving Dimension Resolution (PENDING → RESOLVED)</text>
  <text x="1248" y="570" font-size="9" fill="#BDD7EE">• Gold DQ (7 types): row_count_min · not_null · not_negative</text>
  <text x="1248" y="590" font-size="9" fill="#BDD7EE">  zero_check · allowed_values · duplicate_key · ref_integrity</text>
  <text x="1248" y="610" font-size="9" fill="#BDD7EE">• Column Masking (Unity Catalog) + Temporal FK join</text>
  <text x="1248" y="630" font-size="9" fill="#BDD7EE">• ADF orchestrates Databricks notebook runs via Linked Service</text>
  <!-- TF badge -->
  <rect x="1355" y="690" width="220" height="26" rx="6" fill="#BF9000"/>
  <text x="1465" y="708" text-anchor="middle" font-size="9" font-weight="bold" fill="#fff">✓ SCD Type 2 — Upsert to Gold</text>
  <!-- ADF note -->
  <text x="1465" y="760" text-anchor="middle" font-size="8" fill="#8FA8CC">ADF orchestrates Databricks notebook runs via Linked Service → Databricks Jobs</text>
  <text x="1465" y="778" text-anchor="middle" font-size="8" fill="#8FA8CC">Unity Catalog: 3-level namespace → catalog.schema.table</text>

  <!-- Arrow Processing → Consumption -->
  <line x1="1710" y1="260" x2="1727" y2="260" stroke="#BDD7EE" stroke-width="2.5" marker-end="url(#arrowLight)"/>

  <!-- ════════════════════════════════════════════════════════════════
       5. CONSUMPTION LAYER
  ═════════════════════════════════════════════════════════════════ -->
  <rect x="1730" y="60" width="280" height="370" rx="8" fill="#E9F0FF" stroke="#4472C4" stroke-width="1.5"/>
  <text x="1870" y="84" text-anchor="middle" font-size="11" font-weight="bold" fill="#1F3864">CONSUMPTION LAYER</text>
  <!-- Power BI icon -->
  <rect x="1835" y="100" width="70" height="60" rx="8" fill="#F2C811"/>
  <text x="1870" y="130" text-anchor="middle" font-size="18" fill="#1F3864">📊</text>
  <text x="1870" y="145" text-anchor="middle" font-size="8" fill="#1F3864" font-weight="bold">Power BI</text>
  <text x="1870" y="178" text-anchor="middle" font-size="10" font-weight="bold" fill="#1F3864">Power BI</text>
  <text x="1870" y="194" text-anchor="middle" font-size="9" fill="#4472C4">Dashboards &amp; Reports</text>
  <text x="1745" y="220" font-size="8" fill="#1F3864">• Direct Query / Import from Gold</text>
  <text x="1745" y="237" font-size="8" fill="#1F3864">• dim_customer / dim_product</text>
  <text x="1745" y="254" font-size="8" fill="#1F3864">• dim_date / fact_sales</text>
  <text x="1745" y="271" font-size="8" fill="#1F3864">• Row-level security via Unity Catalog</text>
  <!-- Unity Catalog logos -->
  <rect x="1745" y="296" width="255" height="60" rx="6" fill="#fff" stroke="#4472C4"/>
  <text x="1872" y="318" text-anchor="middle" font-size="10" font-weight="bold" fill="#FF3621">🔷 Unity Catalog</text>
  <text x="1872" y="337" text-anchor="middle" font-size="8" fill="#4472C4">databricks</text>
  <text x="1872" y="353" text-anchor="middle" font-size="8" fill="#4472C4">Unified data governance &amp; cataloging</text>

  <!-- Arrow to Governance -->
  <line x1="1870" y1="430" x2="1870" y2="447" stroke="#7030A0" stroke-width="2" marker-end="url(#arrowPurple)"/>

  <!-- ════════════════════════════════════════════════════════════════
       6. GOVERNANCE & SECURITY
  ═════════════════════════════════════════════════════════════════ -->
  <rect x="1730" y="450" width="280" height="400" rx="8" fill="#F0E6FF" stroke="#7030A0" stroke-width="1.5"/>
  <text x="1870" y="474" text-anchor="middle" font-size="11" font-weight="bold" fill="#4B0082">GOVERNANCE &amp; SECURITY</text>
  <!-- Items -->
  <rect x="1740" y="486" width="260" height="22" rx="4" fill="#E1D5E7"/>
  <text x="1870" y="502" text-anchor="middle" font-size="8" fill="#4B0082"><tspan font-weight="bold">Unity Catalog</tspan> — Unified data governance &amp; cataloging</text>
  <rect x="1740" y="514" width="260" height="22" rx="4" fill="#E1D5E7"/>
  <text x="1870" y="530" text-anchor="middle" font-size="8" fill="#4B0082"><tspan font-weight="bold">RBAC / Access Control</tspan> — AAD groups · Service principals · MSI</text>
  <rect x="1740" y="542" width="260" height="22" rx="4" fill="#E1D5E7"/>
  <text x="1870" y="558" text-anchor="middle" font-size="8" fill="#4B0082"><tspan font-weight="bold">Column Level Security</tspan> — SHA-256 masking · PII Protection · CMK</text>
  <rect x="1740" y="570" width="260" height="22" rx="4" fill="#E1D5E7"/>
  <text x="1870" y="586" text-anchor="middle" font-size="8" fill="#4B0082"><tspan font-weight="bold">Data Lineage</tspan> — Column-level: ADLS → Bronze → Silver → Gold</text>
  <rect x="1740" y="598" width="260" height="22" rx="4" fill="#E1D5E7"/>
  <text x="1870" y="614" text-anchor="middle" font-size="8" fill="#4B0082"><tspan font-weight="bold">Audit &amp; Monitoring</tspan> — pipeline_run_log · dq_check_log · alert_log</text>
  <rect x="1740" y="626" width="260" height="22" rx="4" fill="#E1D5E7"/>
  <text x="1870" y="642" text-anchor="middle" font-size="8" fill="#4B0082"><tspan font-weight="bold">GitHub Actions CI/CD</tspan> — 87 pytest tests · YAML validator · Manual prod gate</text>

  <!-- ════════════════════════════════════════════════════════════════
       ORCHESTRATION BAND
  ═════════════════════════════════════════════════════════════════ -->
  <rect x="10" y="860" width="2000" height="70" rx="8" fill="#F5F5F5" stroke="#AAAAAA" stroke-width="1"/>
  <text x="1010" y="882" text-anchor="middle" font-size="10" font-weight="bold" fill="#1F3864">ORCHESTRATION &amp; MONITORING</text>

  <!-- Orchestration icons -->
  <rect x="50" y="890" width="130" height="30" rx="5" fill="#0078D4"/>
  <text x="115" y="910" text-anchor="middle" font-size="9" font-weight="bold" fill="#fff">⚙ ADF Triggers</text>

  <rect x="310" y="890" width="180" height="30" rx="5" fill="#FF8C00"/>
  <text x="400" y="910" text-anchor="middle" font-size="9" font-weight="bold" fill="#fff">⚡ Azure Function (Event Trigger)</text>

  <rect x="640" y="890" width="150" height="30" rx="5" fill="#FF3621"/>
  <text x="715" y="910" text-anchor="middle" font-size="9" font-weight="bold" fill="#fff">🔷 Databricks Jobs</text>

  <rect x="920" y="890" width="145" height="30" rx="5" fill="#0078D4"/>
  <text x="992" y="910" text-anchor="middle" font-size="9" font-weight="bold" fill="#fff">📊 Azure Monitor</text>

  <rect x="1200" y="890" width="145" height="30" rx="5" fill="#0078D4"/>
  <text x="1272" y="910" text-anchor="middle" font-size="9" font-weight="bold" fill="#fff">📋 Log Analytics</text>

  <rect x="1480" y="890" width="120" height="30" rx="5" fill="#FF0000"/>
  <text x="1540" y="910" text-anchor="middle" font-size="9" font-weight="bold" fill="#fff">🔔 Alerts</text>

  <rect x="1720" y="890" width="130" height="30" rx="5" fill="#0078D4"/>
  <text x="1785" y="910" text-anchor="middle" font-size="9" font-weight="bold" fill="#fff">⚙ ADF Pipeline</text>

  <!-- Arrow marker definitions -->
  <defs>
    <marker id="arrowBlue" markerWidth="8" markerHeight="8" refX="6" refY="3" orient="auto">
      <path d="M0,0 L0,6 L8,3 z" fill="#4472C4"/>
    </marker>
    <marker id="arrowLight" markerWidth="8" markerHeight="8" refX="6" refY="3" orient="auto">
      <path d="M0,0 L0,6 L8,3 z" fill="#BDD7EE"/>
    </marker>
    <marker id="arrowCyan" markerWidth="8" markerHeight="8" refX="6" refY="3" orient="auto">
      <path d="M0,0 L0,6 L8,3 z" fill="#00A4EF"/>
    </marker>
    <marker id="arrowOrange" markerWidth="8" markerHeight="8" refX="6" refY="3" orient="auto">
      <path d="M0,0 L0,6 L8,3 z" fill="#C55A11"/>
    </marker>
    <marker id="arrowSilver" markerWidth="8" markerHeight="8" refX="6" refY="3" orient="auto">
      <path d="M0,0 L0,6 L8,3 z" fill="#2E75B6"/>
    </marker>
    <marker id="arrowGold" markerWidth="8" markerHeight="8" refX="6" refY="3" orient="auto">
      <path d="M0,0 L0,6 L8,3 z" fill="#BF9000"/>
    </marker>
    <marker id="arrowPurple" markerWidth="8" markerHeight="8" refX="6" refY="3" orient="auto">
      <path d="M0,0 L0,6 L8,3 z" fill="#7030A0"/>
    </marker>
  </defs>
</svg>
